<svg xmlns="http://www.w3.org/2000/svg" width="21.583" height="22.964" viewBox="0 0 21.583 22.964"><defs><style>.a{opacity:0.47;}.b{fill:#969696;}</style></defs><g class="a" transform="translate(-14.394 1.002)"><g transform="translate(14.394 -1.002)"><path class="b" d="M35.695,7.361a.957.957,0,0,0-1.353,0L22.839,18.93a3.827,3.827,0,0,1-5.411-5.415L29.271,1.61A2.392,2.392,0,0,1,32.652,5l-9.811,9.811,0,0a.956.956,0,0,1-1.351-1.355l4.736-4.736a.957.957,0,0,0-1.353-1.353L20.135,12.1a2.87,2.87,0,0,0,4.059,4.059l0,0L34,6.348A4.306,4.306,0,1,0,27.916.259L16.074,12.164a5.741,5.741,0,0,0,8.121,8.117L35.7,8.715A.957.957,0,0,0,35.695,7.361Z" transform="translate(-14.394 1.002)"/></g></g></svg>