<svg xmlns="http://www.w3.org/2000/svg" width="29.048" height="29.048" viewBox="0 0 29.048 29.048"><defs><style>.a{fill:#59deff;}</style></defs><g transform="translate(0 12)"><g transform="translate(0 -12)"><path class="a" d="M14.524,0A14.524,14.524,0,1,0,29.048,14.524,14.541,14.541,0,0,0,14.524,0Zm0,27.838A13.314,13.314,0,1,1,27.838,14.524,13.329,13.329,0,0,1,14.524,27.838Z"/><path class="a" d="M161.26,149.51a.6.6,0,0,0-.856,0l-5.019,5.019-5.019-5.019a.605.605,0,0,0-.856.856l5.019,5.019-5.019,5.019a.605.605,0,1,0,.856.856l5.019-5.019,5.019,5.019a.605.605,0,1,0,.856-.856l-5.019-5.019,5.019-5.019A.605.605,0,0,0,161.26,149.51Z" transform="translate(-140.861 -140.86)"/></g></g></svg>