<svg xmlns="http://www.w3.org/2000/svg" xmlns:xlink="http://www.w3.org/1999/xlink" width="132.266" height="172.521" viewBox="0 0 132.266 172.521"><defs><style>.a{stroke:#707070;stroke-width:3.4px;}.b{clip-path:url(#a);}.c,.d{stroke:none;}.e{filter:url(#b);}</style><clipPath id="a"><path class="a" d="M141.73,123.321l-27.468-13.733a7.563,7.563,0,0,1-4.2-6.8V93.067c.658-.805,1.351-1.722,2.067-2.734a65.806,65.806,0,0,0,8.494-16.674,11.409,11.409,0,0,0,6.691-10.4v-11.5a11.467,11.467,0,0,0-2.875-7.548V28.915a25.776,25.776,0,0,0-6.015-18.762C112.516,3.416,102.933,0,89.933,0S67.35,3.416,61.444,10.15a25.782,25.782,0,0,0-6.015,18.765V44.209a11.467,11.467,0,0,0-2.875,7.548v11.5a11.434,11.434,0,0,0,4.3,8.939A60.347,60.347,0,0,0,66.93,93.006v9.515a7.6,7.6,0,0,1-3.959,6.671L37.32,123.183A25.929,25.929,0,0,0,23.8,145.959v9.31c0,13.646,43.26,17.252,66.133,17.252s66.133-3.606,66.133-17.252v-8.75A25.8,25.8,0,0,0,141.73,123.321Z" transform="translate(-23.8)"/></clipPath><filter id="b" x="-22.362" y="-6" width="176.99" height="190.521" filterUnits="userSpaceOnUse"><feOffset dy="3" input="SourceAlpha"/><feGaussianBlur stdDeviation="3" result="c"/><feFlood flood-opacity="0.161"/><feComposite operator="in" in2="c"/><feComposite in="SourceGraphic"/></filter></defs><g class="b"><g class="e" transform="matrix(1, 0, 0, 1, 0, 0)"><g transform="translate(-13.36)"><path class="c" d="M 148.842041015625 172.2714691162109 L 10.14833068847656 172.2714691162109 C 4.69037389755249 172.2714691162109 0.2500043213367462 167.8311004638672 0.2500043213367462 162.3731384277344 L 0.2500043213367462 10.14833545684814 C 0.2500043213367462 4.69037914276123 4.69037389755249 0.2500095367431641 10.14833068847656 0.2500095367431641 L 148.842041015625 0.2500095367431641 C 154.2999877929688 0.2500095367431641 158.7403564453125 4.69037914276123 158.7403564453125 10.14833545684814 L 158.7403564453125 162.3731384277344 C 158.7403564453125 167.8311004638672 154.2999877929688 172.2714691162109 148.842041015625 172.2714691162109 Z"/><path class="d" d="M 10.1483154296875 0.4999847412109375 C 4.828216552734375 0.4999847412109375 0.5 4.828201293945313 0.5 10.1483154296875 L 0.5 162.3731384277344 C 0.5 167.6932220458984 4.828216552734375 172.0214385986328 10.1483154296875 172.0214385986328 L 148.842041015625 172.0214385986328 C 154.1621398925781 172.0214385986328 158.4903564453125 167.6932220458984 158.4903564453125 162.3731384277344 L 158.4903564453125 10.1483154296875 C 158.4903564453125 4.828201293945313 154.1621398925781 0.4999847412109375 148.842041015625 0.4999847412109375 L 10.1483154296875 0.4999847412109375 M 10.1483154296875 -1.52587890625e-05 L 148.842041015625 -1.52587890625e-05 C 154.4467926025391 -1.52587890625e-05 158.9903564453125 4.543548583984375 158.9903564453125 10.1483154296875 L 158.9903564453125 162.3731384277344 C 158.9903564453125 167.9778747558594 154.4467926025391 172.5214385986328 148.842041015625 172.5214385986328 L 10.1483154296875 172.5214385986328 C 4.543563842773438 172.5214385986328 0 167.9778747558594 0 162.3731384277344 L 0 10.1483154296875 C 0 4.543548583984375 4.543563842773438 -1.52587890625e-05 10.1483154296875 -1.52587890625e-05 Z"/></g></g></g></svg>