<svg xmlns="http://www.w3.org/2000/svg" xmlns:xlink="http://www.w3.org/1999/xlink" width="66" height="67" viewBox="0 0 66 67"><defs><style>.a{fill:#fff;}.b,.d{fill:#59deff;}.c,.d{stroke:none;}.e{filter:url(#a);}</style><filter id="a" x="0" y="0" width="66" height="67" filterUnits="userSpaceOnUse"><feOffset input="SourceAlpha"/><feGaussianBlur stdDeviation="5" result="b"/><feFlood flood-color="#1900ff" flood-opacity="0.059"/><feComposite operator="in" in2="b"/><feComposite in="SourceGraphic"/></filter></defs><g transform="translate(15 15)"><g class="e" transform="matrix(1, 0, 0, 1, -15, -15)"><g class="a" transform="translate(15 15)"><path class="c" d="M 18 36.5 C 13.32557964324951 36.5 8.930939674377441 34.67967987060547 5.625629901885986 31.37437057495117 C 2.320319890975952 28.06905937194824 0.5 23.67441940307617 0.5 19 L 0.5 18 C 0.5 13.32557964324951 2.320319890975952 8.930939674377441 5.625629901885986 5.625629901885986 C 8.930939674377441 2.320319890975952 13.32557964324951 0.5 18 0.5 C 22.67441940307617 0.5 27.06905937194824 2.320319890975952 30.37437057495117 5.625629901885986 C 33.67967987060547 8.930939674377441 35.5 13.32557964324951 35.5 18 L 35.5 19 C 35.5 23.67441940307617 33.67967987060547 28.06905937194824 30.37437057495117 31.37437057495117 C 27.06905937194824 34.67967987060547 22.67441940307617 36.5 18 36.5 Z"/><path class="d" d="M 18 1 C 13.45912933349609 1 9.190059661865234 2.768310546875 5.979179382324219 5.979179382324219 C 2.768310546875 9.190059661865234 1 13.45912933349609 1 18 L 1 19 C 1 23.54087066650391 2.768310546875 27.80994033813477 5.979179382324219 31.02082061767578 C 9.190059661865234 34.231689453125 13.45912933349609 36 18 36 C 22.54087066650391 36 26.80994033813477 34.231689453125 30.02082061767578 31.02082061767578 C 33.231689453125 27.80994033813477 35 23.54087066650391 35 19 L 35 18 C 35 13.45912933349609 33.231689453125 9.190059661865234 30.02082061767578 5.979179382324219 C 26.80994033813477 2.768310546875 22.54087066650391 1 18 1 M 18 0 C 27.94112968444824 0 36 8.058870315551758 36 18 L 36 19 C 36 28.94112968444824 27.94112968444824 37 18 37 C 8.058870315551758 37 0 28.94112968444824 0 19 L 0 18 C 0 8.058870315551758 8.058870315551758 0 18 0 Z"/></g></g><g transform="translate(9.258 7.438)"><g transform="translate(0)"><ellipse class="b" cx="4.283" cy="5.444" rx="4.283" ry="5.444" transform="translate(4.273)"/><g transform="translate(0 10.235)"><g transform="translate(0 0)"><path class="b" d="M453.461,257s.218,2.178,1.234,2.359,4.286-.145,4.939,2.25a26.016,26.016,0,0,1,.8,4.128,12.8,12.8,0,0,1-9.167,3.381c-5.647-.244-8.263-3.13-8.263-3.13a22.891,22.891,0,0,1,.753-4.379c.653-2.4,3.557-2.069,4.573-2.25S449.569,257,449.569,257" transform="translate(-443.009 -257)"/></g></g></g></g></g></svg>