<svg xmlns="http://www.w3.org/2000/svg" width="27.094" height="27.094" viewBox="0 0 27.094 27.094"><defs><style>.a{fill:#59deff;}</style></defs><path class="a" d="M27.094,24.634l-5.18-5.18a12.1,12.1,0,0,0,2.438-7.278,12.3,12.3,0,0,0-2.9-7.883A12.02,12.02,0,0,0,12.176,0a12.176,12.176,0,1,0,7.278,21.914l.89.89,2.109,2.109,2.18,2.18ZM1.16,12.176A11.016,11.016,0,1,1,12.176,23.193,11.029,11.029,0,0,1,1.16,12.176Zm19.463,8.751q.155-.15.3-.3c.085-.088.176-.168.258-.258l4.269,4.269v-.273l-1.1-1.557-3.168-2.71C21.274,20.012,20.535,21.011,20.622,20.927Z"/></svg>